<mxfile host="app.diagrams.net" agent="Mozilla/5.0 (Windows NT 10.0; Win64; x64) AppleWebKit/537.36 (KHTML, like Gecko) Chrome/131.0.0.0 Safari/537.36" version="25.0.3">
  <diagram id="a5KCIQKfTWQ5OtX3c2Wh" name="Halaman-1">
    <mxGraphModel dx="1194" dy="638" grid="1" gridSize="10" guides="1" tooltips="1" connect="1" arrows="1" fold="1" page="1" pageScale="1" pageWidth="827" pageHeight="1169" math="0" shadow="0">
      <root>
        <mxCell id="0" />
        <mxCell id="1" parent="0" />
        <mxCell id="D9n_Limc-fniIIdKZypQ-5" value="User" style="swimlane;whiteSpace=wrap;html=1;" parent="1" vertex="1">
          <mxGeometry x="60" y="60" width="220" height="500" as="geometry" />
        </mxCell>
        <mxCell id="D9n_Limc-fniIIdKZypQ-11" value="" style="edgeStyle=orthogonalEdgeStyle;rounded=0;orthogonalLoop=1;jettySize=auto;html=1;" parent="D9n_Limc-fniIIdKZypQ-5" source="D9n_Limc-fniIIdKZypQ-8" target="D9n_Limc-fniIIdKZypQ-9" edge="1">
          <mxGeometry relative="1" as="geometry" />
        </mxCell>
        <mxCell id="D9n_Limc-fniIIdKZypQ-8" value="" style="ellipse;whiteSpace=wrap;html=1;aspect=fixed;color=black;" parent="D9n_Limc-fniIIdKZypQ-5" vertex="1">
          <mxGeometry x="90" y="47" width="20" height="20" as="geometry" />
        </mxCell>
        <mxCell id="D9n_Limc-fniIIdKZypQ-13" value="" style="edgeStyle=orthogonalEdgeStyle;rounded=0;orthogonalLoop=1;jettySize=auto;html=1;" parent="D9n_Limc-fniIIdKZypQ-5" source="D9n_Limc-fniIIdKZypQ-9" target="D9n_Limc-fniIIdKZypQ-12" edge="1">
          <mxGeometry relative="1" as="geometry" />
        </mxCell>
        <mxCell id="D9n_Limc-fniIIdKZypQ-9" value="Login" style="rounded=1;whiteSpace=wrap;html=1;" parent="D9n_Limc-fniIIdKZypQ-5" vertex="1">
          <mxGeometry x="40" y="90" width="120" height="30" as="geometry" />
        </mxCell>
        <mxCell id="D9n_Limc-fniIIdKZypQ-12" value="Masukan (username&amp;amp;Password)" style="rounded=1;whiteSpace=wrap;html=1;" parent="D9n_Limc-fniIIdKZypQ-5" vertex="1">
          <mxGeometry x="40" y="140" width="120" height="30" as="geometry" />
        </mxCell>
        <mxCell id="D9n_Limc-fniIIdKZypQ-57" value="Mulai" style="text;html=1;align=center;verticalAlign=middle;whiteSpace=wrap;rounded=0;" parent="D9n_Limc-fniIIdKZypQ-5" vertex="1">
          <mxGeometry x="70" y="30" width="60" height="10" as="geometry" />
        </mxCell>
        <mxCell id="D9n_Limc-fniIIdKZypQ-6" value="Sistem" style="swimlane;whiteSpace=wrap;html=1;" parent="1" vertex="1">
          <mxGeometry x="280" y="60" width="290" height="500" as="geometry" />
        </mxCell>
        <mxCell id="D9n_Limc-fniIIdKZypQ-17" value="" style="edgeStyle=orthogonalEdgeStyle;rounded=0;orthogonalLoop=1;jettySize=auto;html=1;" parent="D9n_Limc-fniIIdKZypQ-6" source="D9n_Limc-fniIIdKZypQ-14" target="D9n_Limc-fniIIdKZypQ-15" edge="1">
          <mxGeometry relative="1" as="geometry" />
        </mxCell>
        <mxCell id="D9n_Limc-fniIIdKZypQ-14" value="Validasi" style="rounded=1;whiteSpace=wrap;html=1;" parent="D9n_Limc-fniIIdKZypQ-6" vertex="1">
          <mxGeometry x="80" y="170" width="120" height="30" as="geometry" />
        </mxCell>
        <mxCell id="D9n_Limc-fniIIdKZypQ-19" style="edgeStyle=orthogonalEdgeStyle;rounded=0;orthogonalLoop=1;jettySize=auto;html=1;entryX=0.467;entryY=0;entryDx=0;entryDy=0;entryPerimeter=0;" parent="D9n_Limc-fniIIdKZypQ-6" target="D9n_Limc-fniIIdKZypQ-18" edge="1">
          <mxGeometry relative="1" as="geometry">
            <mxPoint x="29.200000000000045" y="267.39" as="targetPoint" />
            <mxPoint x="100" y="240" as="sourcePoint" />
            <Array as="points">
              <mxPoint x="70" y="240" />
            </Array>
          </mxGeometry>
        </mxCell>
        <mxCell id="D9n_Limc-fniIIdKZypQ-22" value="Ya" style="edgeLabel;html=1;align=center;verticalAlign=middle;resizable=0;points=[];" parent="D9n_Limc-fniIIdKZypQ-19" vertex="1" connectable="0">
          <mxGeometry x="-0.57" y="1" relative="1" as="geometry">
            <mxPoint as="offset" />
          </mxGeometry>
        </mxCell>
        <mxCell id="D9n_Limc-fniIIdKZypQ-46" value="Tidak" style="edgeLabel;html=1;align=center;verticalAlign=middle;resizable=0;points=[];" parent="D9n_Limc-fniIIdKZypQ-19" vertex="1" connectable="0">
          <mxGeometry x="-0.5208" relative="1" as="geometry">
            <mxPoint as="offset" />
          </mxGeometry>
        </mxCell>
        <mxCell id="D9n_Limc-fniIIdKZypQ-15" value="" style="rhombus;whiteSpace=wrap;html=1;" parent="D9n_Limc-fniIIdKZypQ-6" vertex="1">
          <mxGeometry x="100" y="220" width="80" height="40" as="geometry" />
        </mxCell>
        <mxCell id="D9n_Limc-fniIIdKZypQ-18" value="Tampilkan Pesan Error" style="rounded=1;whiteSpace=wrap;html=1;" parent="D9n_Limc-fniIIdKZypQ-6" vertex="1">
          <mxGeometry x="14" y="310" width="120" height="30" as="geometry" />
        </mxCell>
        <mxCell id="D9n_Limc-fniIIdKZypQ-26" value="" style="ellipse;whiteSpace=wrap;html=1;aspect=fixed;" parent="D9n_Limc-fniIIdKZypQ-6" vertex="1">
          <mxGeometry x="194" y="424" width="30" height="30" as="geometry" />
        </mxCell>
        <mxCell id="D9n_Limc-fniIIdKZypQ-27" value="" style="ellipse;whiteSpace=wrap;html=1;aspect=fixed;color=black;" parent="D9n_Limc-fniIIdKZypQ-6" vertex="1">
          <mxGeometry x="199" y="429" width="20" height="20" as="geometry" />
        </mxCell>
        <mxCell id="D9n_Limc-fniIIdKZypQ-28" value="selesai" style="text;html=1;align=center;verticalAlign=middle;whiteSpace=wrap;rounded=0;" parent="D9n_Limc-fniIIdKZypQ-6" vertex="1">
          <mxGeometry x="182" y="457" width="60" height="10" as="geometry" />
        </mxCell>
        <mxCell id="yO32-EtG7cN1K7TmvJKR-4" style="edgeStyle=orthogonalEdgeStyle;rounded=0;orthogonalLoop=1;jettySize=auto;html=1;" parent="D9n_Limc-fniIIdKZypQ-6" source="D9n_Limc-fniIIdKZypQ-52" edge="1">
          <mxGeometry relative="1" as="geometry">
            <mxPoint x="210" y="420" as="targetPoint" />
          </mxGeometry>
        </mxCell>
        <mxCell id="D9n_Limc-fniIIdKZypQ-52" value="Tampilkan Laman Dashboard" style="rounded=1;whiteSpace=wrap;html=1;" parent="D9n_Limc-fniIIdKZypQ-6" vertex="1">
          <mxGeometry x="150" y="360" width="120" height="30" as="geometry" />
        </mxCell>
        <mxCell id="D9n_Limc-fniIIdKZypQ-16" value="" style="edgeStyle=orthogonalEdgeStyle;rounded=0;orthogonalLoop=1;jettySize=auto;html=1;" parent="1" source="D9n_Limc-fniIIdKZypQ-12" target="D9n_Limc-fniIIdKZypQ-14" edge="1">
          <mxGeometry relative="1" as="geometry">
            <Array as="points">
              <mxPoint x="420" y="240" />
            </Array>
          </mxGeometry>
        </mxCell>
        <mxCell id="D9n_Limc-fniIIdKZypQ-31" value="Server" style="swimlane;whiteSpace=wrap;html=1;" parent="1" vertex="1">
          <mxGeometry x="570" y="60" width="250" height="500" as="geometry" />
        </mxCell>
        <mxCell id="D9n_Limc-fniIIdKZypQ-20" value="Menyimpan Data Login ke Database" style="rounded=1;whiteSpace=wrap;html=1;" parent="D9n_Limc-fniIIdKZypQ-31" vertex="1">
          <mxGeometry x="50" y="300" width="120" height="30" as="geometry" />
        </mxCell>
        <mxCell id="D9n_Limc-fniIIdKZypQ-21" style="edgeStyle=orthogonalEdgeStyle;rounded=0;orthogonalLoop=1;jettySize=auto;html=1;entryX=0.5;entryY=0;entryDx=0;entryDy=0;" parent="1" source="D9n_Limc-fniIIdKZypQ-15" target="D9n_Limc-fniIIdKZypQ-20" edge="1">
          <mxGeometry relative="1" as="geometry">
            <Array as="points">
              <mxPoint x="680" y="300" />
            </Array>
          </mxGeometry>
        </mxCell>
        <mxCell id="D9n_Limc-fniIIdKZypQ-23" value="Ya" style="edgeLabel;html=1;align=center;verticalAlign=middle;resizable=0;points=[];" parent="D9n_Limc-fniIIdKZypQ-21" vertex="1" connectable="0">
          <mxGeometry x="-0.5822" y="1" relative="1" as="geometry">
            <mxPoint as="offset" />
          </mxGeometry>
        </mxCell>
        <mxCell id="D9n_Limc-fniIIdKZypQ-54" style="edgeStyle=orthogonalEdgeStyle;rounded=0;orthogonalLoop=1;jettySize=auto;html=1;entryX=0.5;entryY=0;entryDx=0;entryDy=0;" parent="1" source="D9n_Limc-fniIIdKZypQ-20" target="D9n_Limc-fniIIdKZypQ-52" edge="1">
          <mxGeometry relative="1" as="geometry">
            <Array as="points">
              <mxPoint x="490" y="375" />
            </Array>
          </mxGeometry>
        </mxCell>
      </root>
    </mxGraphModel>
  </diagram>
</mxfile>
